<?xml version="1.0" encoding="utf-8"?>
<svg id="svg2" viewBox="0 0 256 256" xmlns="http://www.w3.org/2000/svg">
  <g id="layer1">
    <path style="fill: rgb(0, 128, 0); stroke: rgb(0, 0, 0); stroke-width: 1px; stroke-linecap: butt; stroke-linejoin: miter; stroke-opacity: 1;" id="path2993" d="M 121.996 56.286 C 124.269 58.023 120.791 60.229 119.128 60.09 C 114.622 59.714 113.149 54.167 114.44 50.505 C 116.749 43.955 124.804 42.112 130.601 44.866 C 139.108 48.903 141.337 59.883 137.106 67.846 C 131.467 78.459 117.643 81.115 107.658 75.318 C 95.087 68.019 92.038 51.099 99.331 38.945 C 108.161 24.222 127.939 20.735 142.074 29.638 C 158.73 40.133 162.6 63.081 152.216 79.407 C 140.227 98.254 114.45 102.571 96.183 90.543 C 75.425 76.876 70.73 47.87 84.221 27.382 C 99.354 4.399 131.152 -0.749 153.546 14.412 C 178.408 31.243 183.93 66.324 167.328 90.965" transform="matrix(0.305513, 0.952188, -0.952188, 0.305513, 136.905878, -85.885062)"/>
    <path style="fill:#ffff00;fill-rule:evenodd;stroke:#000000;stroke-width:1px;stroke-linecap:butt;stroke-linejoin:miter;stroke-opacity:1" id="path2997" d="M 87.949 138.608 C 107.858 165.629 80.451 119.108 80.676 152.671 C 80.901 186.233 107.682 139.349 88.137 166.634 C 68.592 193.919 104.366 153.477 72.515 164.062 C 40.665 174.648 93.53 185.63 61.541 175.473 C 29.552 165.316 79.069 186.842 59.159 159.822 C 39.25 132.801 45.141 186.473 44.916 152.91 C 44.691 119.348 39.52 173.094 59.066 145.809 C 78.611 118.524 29.387 140.712 61.237 130.127 C 93.087 119.541 40.374 131.232 72.363 141.389 C 104.353 151.546 68.039 111.588 87.949 138.608 Z"/>
    <path style="fill-rule: evenodd; stroke: rgb(0, 0, 0); stroke-width: 1px; stroke-linecap: butt; stroke-linejoin: miter; stroke-opacity: 1; fill: rgb(0, 217, 255);" id="path2999" d="M 195.953 173.753 C 104 102.422 271.148 117.1 167.868 170.734 C 107.962 201.844 156.588 245.827 179.456 182.317 C 218.88 72.822 256.572 236.325 173.648 154.674 C 125.549 107.313 98.745 167.151 166.213 169.274 C 282.531 172.933 138.678 259.305 190.708 155.208 C 220.887 94.828 155.695 87.826 174.525 152.649 C 206.99 264.405 80.392 154.283 195.472 171.599 C 262.223 181.642 248.736 117.477 192.906 155.417 C 96.651 220.827 162.263 66.395 181.356 181.194 C 192.431 247.781 249.288 215.127 195.953 173.753 Z"/>
    <path id="Ferry" d="M 0 160 C 0 224, 64 256, 128 256 C 192 256,256 224, 256 160 Z" style="fill: rgb(255, 64, 64); fill-opacity: 0.5; stroke-width: 0.5; stroke-opacity: 0.5; stroke: rgb(128, 0, 0);"/>
  </g>
</svg>