<?xml version="1.0" encoding="utf-8"?>
<svg id="svg2" viewBox="0 0 288 288" xmlns="http://www.w3.org/2000/svg">
   <g id="Ferry" transform="matrix(1 0 0 1 16 16)">
      <path 
      style="fill:#ffff00;fill-rule:evenodd;stroke:#000000;stroke-width:1px;
      stroke-linecap:butt;stroke-linejoin:miter;stroke-opacity:1" id="path2997" 
      d="M 87.949 138.608 C 107.858 165.629 80.451 119.108 80.676 152.671 C 
      80.901 186.233 107.682 139.349 88.137 166.634 C 68.592 193.919 104.366 
      153.477 72.515 164.062 C 40.665 174.648 93.53 185.63 61.541 175.473 C 
      29.552 165.316 79.069 186.842 59.159 159.822 C 39.25 132.801 45.141 
      186.473 44.916 152.91 C 44.691 119.348 39.52 173.094 59.066 145.809 C 
      78.611 118.524 29.387 140.712 61.237 130.127 C 93.087 119.541 40.374 
      131.232 72.363 141.389 C 104.353 151.546 68.039 111.588 87.949 138.608 Z"
      />
   </g>
</svg>
