<?xml version="1.0" encoding="utf-8"?>
<svg id="svg2" viewBox="0 0 288 288" xmlns="http://www.w3.org/2000/svg">
   <g id="Ferry" transform="matrix(1 0 0 1 16 16)">
      <path style="fill-rule: evenodd; stroke: rgb(0, 0, 0); stroke-width: 1px; 
      stroke-linecap: butt; stroke-linejoin: miter; stroke-opacity: 1; fill: 
      rgb(0, 217, 255);" id="path2999" d="M 195.953 173.753 C 104 102.422 
      271.148 117.1 167.868 170.734 C 107.962 201.844 156.588 245.827 179.456 
      182.317 C 218.88 72.822 256.572 236.325 173.648 154.674 C 125.549 107.313 
      98.745 167.151 166.213 169.274 C 282.531 172.933 138.678 259.305 190.708 
      155.208 C 220.887 94.828 155.695 87.826 174.525 152.649 C 206.99 264.405 
      80.392 154.283 195.472 171.599 C 262.223 181.642 248.736 117.477 192.906 
      155.417 C 96.651 220.827 162.263 66.395 181.356 181.194 C 192.431 247.781 
      249.288 215.127 195.953 173.753 Z"
      />
   </g>
</svg>
