<?xml version="1.0" encoding="utf-8"?>
<svg id="svg2" viewBox="0 0 288 16" xmlns="http://www.w3.org/2000/svg">
   <g id="Waves">
      <path id="Waves" d="M -64,8 c 8,-8 8,-8 16,0 c 8,8 8,8 16,0 
      c 8,-8 8,-8 16,0 c 8,8 8,8 16,0 c 8,-8 8,-8 16,0 c 8,8 8,8 16,0 
      c 8,-8 8,-8 16,0 c 8,8 8,8 16,0 c 8,-8 8,-8 16,0 c 8,8 8,8 16,0
      c 8,-8 8,-8 16,0 c 8,8 8,8 16,0 c 8,-8 8,-8 16,0 c 8,8 8,8 16,0
      c 8,-8 8,-8 16,0 c 8,8 8,8 16,0 c 8,-8 8,-8 16,0 c 8,8 8,8 16,0
      c 8,-8 8,-8 16,0 c 8,8 8,8 16,0 c 8,-8 8,-8 16,0 c 8,8 8,8 16,0"
      style="stroke-width:0.5;
      fill: rgba(255,255,255,0); stroke-opacity: 1.0; stroke: rgb(0, 0, 256);"
      >
         <animateMotion path="M 0 0 H 32" dur="3s" repeatCount="indefinite" />
      </path>
   </g>
</svg>

